<svg xmlns="http://www.w3.org/2000/svg" viewBox="0 0 2645.7 471.8"><path d="M235.9 0C105.62 0 0 105.62 0 235.9s105.62 235.9 235.9 235.9 235.9-105.62 235.9-235.9S366.18 0 235.9 0zm144.01 317.21c-12.81 26.89-31.37 47.48-55.7 61.78-24.33 14.3-52.72 21.45-85.15 21.45-29.88 0-56.45-7.26-79.71-21.77-23.27-14.5-41.51-34.35-54.74-59.53-13.23-25.19-19.84-53.99-19.84-86.43 0-32.44 6.61-58.9 19.84-83.23.85-1.56 1.77-3.03 2.66-4.55l41.92 26.54c-6.13 12.01-9.92 25.15-11.28 39.47h77.15v41.62h-77.8c.85 20.06 5.76 37.78 14.73 53.14 8.96 15.36 20.81 27.43 35.53 36.17 14.73 8.76 31.47 13.12 50.26 13.12 24.75 0 45.78-4.69 63.06-14.08 17.29-9.39 29.77-22.83 37.46-40.34 7.69-17.51 2.9-8.38 2.9-8.38l38.71 25.03-19.93-12.88 19.93 12.88zm7.04-96.04c0 4.7-.22 9.61-.64 14.73-.43 5.11-.86 10.67-1.28 16.64H263.64v-41.62h70.81c.42-18.34-3.52-34.57-11.84-48.66-8.33-14.08-19.96-25.18-34.89-33.29-14.95-8.1-32.23-12.16-51.86-12.16-17.08 0-32.65 4.06-46.74 12.16a98.886 98.886 0 0 0-15.36 10.93l-41.96-26.61c8.17-8.01 17.21-15.1 27.24-21.14 23.05-13.86 49.3-20.81 78.75-20.81 29.45 0 54.95 6.4 77.79 19.21 22.83 12.8 40.65 30.52 53.46 53.14 12.8 22.63 18.78 48.45 17.93 77.47zm268.81-39.65h26.21l1.52 27.73c5.06-6.84 11.21-12.66 18.42-17.47 7.22-4.81 15.19-8.17 23.93-10.07 8.74-1.9 18.04-1.96 27.92-.19v28.49c-10.64-2.02-20.2-2.02-28.68 0-8.49 2.03-15.76 5.83-21.84 11.4s-10.77 12.6-14.05 21.08c-3.29 8.49-4.94 18.3-4.94 29.44v99.52h-28.49V181.53zm246.13 189.92l-2.28-34.19c-5.32 11.65-13.17 20.7-23.55 27.16-10.39 6.46-23.55 9.69-39.5 9.69-13.67 0-25.32-2.15-34.95-6.46-9.63-4.3-17.03-10.44-22.22-18.42-5.19-7.98-7.79-17.41-7.79-28.3 0-15.95 5.95-29.06 17.85-39.31 11.9-10.26 29.12-16.52 51.66-18.8l58.49-6.46v-15.19c0-10.64-3.93-19.18-11.77-25.64-7.85-6.46-18.49-9.69-31.91-9.69-13.42 0-24.12 3.04-32.86 9.12-8.74 6.08-14.76 14.81-18.04 26.21l-25.83-9.12c5.06-16.71 14.37-29.75 27.92-39.12 13.54-9.36 30.07-14.05 49.57-14.05 22.53 0 40.07 5.76 52.61 17.28 12.54 11.52 18.8 27.16 18.8 46.91v128.38h-26.21zm-2.28-90.78l-58.87 6.84c-12.67 1.52-22.29 5-28.87 10.45-6.59 5.45-9.88 12.6-9.88 21.46 0 8.86 3.23 15.95 9.69 21.27 6.46 5.32 15.76 7.98 27.92 7.98 13.92 0 25.32-2.78 34.19-8.36 8.86-5.57 15.38-13.1 19.56-22.6 4.18-9.5 6.27-19.81 6.27-30.96v-6.08zm80.91-99.14l60.01 158.01 60.39-158.01h30.01l-75.97 189.92h-29.63l-75.21-189.92h30.39zm255.63 192.58c-17.73 0-33.49-4.3-47.29-12.92-13.8-8.6-24.63-20.38-32.48-35.32-7.85-14.94-11.77-32.03-11.77-51.28s3.92-34.95 11.77-49.38 18.61-25.76 32.29-34c13.67-8.23 29.25-12.34 46.72-12.34s32.6 3.8 46.15 11.39c13.54 7.6 24.12 18.11 31.72 31.53 7.6 13.43 11.14 28.74 10.64 45.96 0 2.79-.13 5.7-.38 8.74-.26 3.04-.51 6.33-.76 9.88h-147c.5 11.9 3.42 22.41 8.74 31.53 5.32 9.12 12.35 16.27 21.08 21.46 8.74 5.19 18.67 7.79 29.82 7.79 14.68 0 27.16-2.78 37.41-8.36 10.26-5.57 17.66-13.54 22.22-23.93l24.69 9.87c-7.6 15.95-18.61 28.17-33.05 36.65-14.44 8.49-31.28 12.73-50.52 12.73zm56.59-112.43c.25-10.88-2.09-20.51-7.03-28.87s-11.84-14.94-20.7-19.75c-8.87-4.81-19.12-7.22-30.77-7.22-10.13 0-19.37 2.41-27.73 7.22s-15.26 11.46-20.7 19.94c-5.45 8.49-8.68 18.04-9.69 28.68h116.61zm68.37-163.71h28.49v273.48h-28.49zM1519.5 374.1c-18.99 0-35.65-4.18-49.95-12.54-14.31-8.36-25.45-20-33.43-34.94-7.98-14.94-11.97-32.16-11.97-51.66 0-18.48 3.92-34.94 11.78-49.38 7.85-14.43 18.73-25.83 32.67-34.19 13.92-8.36 29.75-12.53 47.48-12.53 17.73 0 33.81 3.93 47.48 11.77 13.68 7.85 24.37 18.8 32.1 32.86 7.72 14.05 11.59 30.33 11.59 48.81 0 3.04-.13 6.27-.38 9.69-.26 3.42-.63 7.03-1.14 10.82h-135.22c1.26 8.87 4.11 16.52 8.54 22.98 4.43 6.46 10.07 11.46 16.9 15 6.84 3.55 14.68 5.32 23.55 5.32 10.63 0 20.19-2.15 28.68-6.46 8.48-4.3 14.37-10 17.66-17.09l37.6 12.53c-7.6 15.19-18.86 27.16-33.81 35.9-14.94 8.74-31.66 13.1-50.14 13.1zm41.02-116.23c-.26-7.85-2.41-14.94-6.46-21.27s-9.37-11.33-15.95-15c-6.59-3.67-13.93-5.51-22.03-5.51-7.09 0-13.81 1.77-20.13 5.32-6.33 3.55-11.71 8.42-16.14 14.62-4.43 6.21-7.28 13.48-8.55 21.84zm54.32-76.35h49.38l40.64 61.53 41.02-61.53h49l-66.47 94.96 66.47 94.96h-49l-41.02-61.91-40.64 61.91h-49.38l66.47-94.96zm243.84 161.81l4.94-1.14V447.4h-42.92V181.52h38.74l3.04 23.55c6.33-7.34 14.56-13.54 24.69-18.61 10.12-5.06 22.41-7.6 36.84-7.6 16.46 0 31.08 4.05 43.87 12.15 12.78 8.11 22.79 19.44 30.01 34 7.22 14.56 10.83 31.72 10.83 51.47s-3.61 36.6-10.83 51.28c-7.22 14.69-17.16 26.08-29.82 34.18-12.67 8.11-27.35 12.16-44.06 12.16-15.19 0-28.36-2.97-39.5-8.93-11.15-5.95-19.75-13.23-25.83-21.84zm104.08-66.85c0-17.47-4.62-31.65-13.87-42.54-9.25-10.88-21.08-16.33-35.51-16.33-9.12 0-17.41 2.28-24.88 6.84-7.47 4.56-13.49 11.14-18.04 19.75-4.56 8.61-6.84 19.37-6.84 32.29 0 12.92 2.28 23.36 6.84 32.1 4.56 8.74 10.57 15.38 18.04 19.94 7.47 4.56 15.76 6.84 24.88 6.84 14.43 0 26.27-5.44 35.51-16.33 9.24-10.88 13.87-25.07 13.87-42.54zm161.81 97.62c-18.99 0-35.65-4.18-49.95-12.54-14.31-8.36-25.45-20-33.43-34.94-7.98-14.94-11.97-32.16-11.97-51.66 0-18.48 3.92-34.94 11.78-49.38 7.85-14.43 18.73-25.83 32.67-34.19 13.92-8.36 29.75-12.53 47.48-12.53 17.73 0 33.81 3.93 47.48 11.77 13.68 7.85 24.37 18.8 32.1 32.86 7.72 14.05 11.59 30.33 11.59 48.81 0 3.04-.13 6.27-.38 9.69-.26 3.42-.63 7.03-1.14 10.82h-135.22c1.26 8.87 4.11 16.52 8.54 22.98 4.43 6.46 10.07 11.46 16.9 15 6.84 3.55 14.68 5.32 23.55 5.32 10.63 0 20.19-2.15 28.68-6.46 8.48-4.3 14.37-10 17.66-17.09l37.6 12.53c-7.6 15.19-18.86 27.16-33.81 35.9-14.94 8.74-31.66 13.1-50.14 13.1zm41.02-116.23c-.26-7.85-2.41-14.94-6.46-21.27s-9.37-11.33-15.95-15c-6.59-3.67-13.93-5.51-22.03-5.51-7.09 0-13.81 1.77-20.13 5.32-6.33 3.55-11.71 8.42-16.14 14.62-4.43 6.21-7.28 13.48-8.55 21.84zm77.86-76.35h38.74l3.42 23.55c5.06-6.33 11.01-11.59 17.85-15.76 6.84-4.18 14.24-7.03 22.22-8.55 7.98-1.52 16.01-1.26 24.12.76v39.5c-6.59-2.28-13.62-2.85-21.08-1.71-7.47 1.14-14.38 3.93-20.7 8.36-6.33 4.43-11.53 10.63-15.57 18.61-4.05 7.98-6.08 17.79-6.08 29.44v95.72h-42.92zm285.63 128.77c1.77 7.09 4.87 12.53 9.3 16.33 4.43 3.8 9.31 6.4 14.63 7.79 5.32 1.39 10.38 2.09 15.19 2.09 9.88 0 17.66-1.96 23.36-5.89 5.7-3.92 8.55-8.93 8.55-15 0-5.06-1.9-8.99-5.7-11.78-3.8-2.78-8.68-5-14.63-6.65-5.95-1.64-12.09-3.35-18.42-5.13-6.84-1.77-14.12-3.8-21.84-6.08-7.73-2.28-15-5.44-21.84-9.5-6.84-4.05-12.41-9.24-16.71-15.57-4.31-6.33-6.46-14.18-6.46-23.55 0-11.9 3.29-22.22 9.88-30.96 6.58-8.74 15.57-15.51 26.97-20.32 11.4-4.81 24.18-7.22 38.36-7.22 16.96 0 31.65 3.55 44.06 10.63 12.41 7.09 21.4 17.47 26.97 31.15l-37.6 12.15c-1.77-3.54-4.37-6.58-7.79-9.12-3.42-2.53-7.47-4.37-12.15-5.51a60.1 60.1 0 0 0-14.24-1.71c-8.11 0-14.95 1.65-20.51 4.94-5.57 3.29-8.36 7.98-8.36 14.05 0 3.04.95 5.7 2.85 7.98 1.9 2.28 4.49 4.12 7.79 5.51 3.29 1.39 7.22 2.66 11.78 3.8 4.56 1.14 9.36 2.47 14.43 3.99 8.1 2.28 16.14 4.75 24.12 7.41s15.32 6.02 22.03 10.07c6.71 4.05 12.02 9.37 15.95 15.95 3.92 6.59 6.14 14.94 6.65 25.07 0 10.89-3.17 20.83-9.49 29.82-6.33 8.99-15.39 16.08-27.16 21.27-11.78 5.19-25.77 7.79-41.97 7.79-18.74 0-34.82-4.05-48.24-12.16-13.43-8.1-22.54-21.14-27.35-39.12l37.6-12.53zM622.72 208.11v-26.59H572.2v-53.18h-28.49v181.94c0 13.42 2.21 24.44 6.65 33.05 4.43 8.61 10.38 15.26 17.85 19.94 7.47 4.69 15.95 7.54 25.45 8.55 9.49 1.01 19.18.38 29.06-1.9v-24.69c-8.36 1.01-16.4 1.01-24.12 0-7.73-1.01-14.05-4.18-18.99-9.49-4.94-5.32-7.41-13.8-7.41-25.45V208.12h50.52zm1851.66 11.02v-37.6h-44.44v-53.18h-43.68v175.1c0 15.7 2.53 28.36 7.6 37.98 5.06 9.63 11.78 16.9 20.13 21.84 8.36 4.94 17.79 7.85 28.3 8.74 10.5.88 21.2.19 32.1-2.09v-36.46c-7.09 1.01-14.12 1.33-21.08.95-6.97-.38-12.6-2.78-16.9-7.22-4.31-4.43-6.46-12.34-6.46-23.74v-84.32h44.44z" class="cls-1" fill="#2d8b8f"/></svg>